Coordinates
version=1
nRows=64
nColumns=11
inDegrees=yes

Units are S.I. units (second, meters, Newtons, ...)
If the header above contains a line with 'inDegrees', this indicates whether rotational values are in degrees (yes) or radians (no).

endheader
time	pelvis_tilt	pelvis_tx	pelvis_ty	hip_flexion_l	hip_flexion_r	knee_angle_l	knee_angle_r	ankle_angle_l	ankle_angle_r	lumbar_extension
      2.20000000	    -87.97701457	      1.25791235	      0.80828171	     63.45007783	    104.99222362	     11.81665217	     14.69425663	   -171.97984813	   -167.95210767	     96.16086823
      2.21000000	    -87.78749392	      1.24687472	      0.80658672	     63.15077989	    105.37125700	     11.98813303	     14.93035762	   -172.18044387	   -167.39659213	     95.98940507
      2.22000000	    -87.43737204	      1.23599438	      0.80495977	     62.71734658	    105.61626312	     12.49522479	     15.09030105	   -172.41417436	   -166.83847249	     95.65293590
      2.23000000	    -87.13892266	      1.22471415	      0.80334685	     62.39816854	    105.98895453	     13.25420340	     15.16055999	   -172.49103407	   -166.19551777	     95.34602252
      2.24000000	    -86.68182893	      1.21331390	      0.80174243	     62.00650805	    106.23657997	     14.25353980	     15.18059811	   -172.62900202	   -165.53658093	     94.84503909
      2.25000000	    -86.37759107	      1.20191366	      0.80032878	     61.70447682	    106.66978736	     15.53220093	     15.07607682	   -171.51736825	   -164.68307487	     94.54256969
      2.26000000	    -86.27842556	      1.19051517	      0.79951246	     61.38697215	    107.26285923	     17.23546251	     14.96726245	   -170.59355518	   -163.58200321	     94.51599345
      2.27000000	    -86.05498147	      1.17895357	      0.79888171	     60.60601024	    107.70456410	     19.64050094	     14.90365163	   -171.91734779	   -162.40190587	     94.30538362
      2.28000000	    -85.78538104	      1.16740005	      0.79837837	     59.71013145	    108.07607042	     22.04969438	     14.87632519	   -172.84844620	   -161.08410308	     94.03479696
      2.29000000	    -85.44320535	      1.15561129	      0.79797502	     59.01889092	    108.35182811	     23.82230247	     14.89168819	   -172.77215077	   -159.72100837	     93.65762725
      2.30000000	    -85.21617112	      1.14368910	      0.79769007	     58.78782804	    108.65809056	     24.87517022	     15.00516275	   -172.29440828	   -158.31248871	     93.40508005
      2.31000000	    -84.87306501	      1.13152938	      0.79766038	     58.62159336	    108.81531371	     25.70804689	     15.16175914	   -172.01783300	   -156.63964803	     92.96052684
      2.32000000	    -84.47077767	      1.11918249	      0.79795815	     58.50233351	    108.82854002	     26.65254325	     15.44572834	   -172.67806181	   -154.81029136	     92.47785502
      2.33000000	    -84.20940829	      1.10649908	      0.79863530	     58.60409403	    108.88562567	     27.67332735	     15.84306838	   -173.62500067	   -152.96506870	     92.11620861
      2.34000000	    -84.00717164	      1.09360014	      0.79963386	     58.85558301	    108.87768467	     28.46084343	     16.34224979	   -174.46881262	   -150.89935447	     91.80120877
      2.35000000	    -84.01133748	      1.08036576	      0.80089729	     59.47843937	    108.95228595	     28.97625471	     16.94905752	   -175.30466470	   -148.73323807	     91.68779049
      2.36000000	    -84.08810027	      1.06724434	      0.80242422	     60.29017508	    108.95415516	     29.22846494	     17.65824821	   -175.96248002	   -146.47115873	     91.67346095
      2.37000000	    -84.37395062	      1.05400799	      0.80411648	     61.46809846	    109.01621660	     29.19251887	     18.59467565	   -176.58961683	   -144.63734599	     91.87549928
      2.38000000	    -84.84942354	      1.04086566	      0.80598095	     62.92384379	    109.09022540	     28.97679739	     19.66051682	   -177.14591988	   -143.34421699	     92.31269053
      2.39000000	    -85.19424697	      1.02774526	      0.80795562	     64.30719748	    108.94012126	     28.68349831	     20.81187413	   -177.66967642	   -142.99792812	     92.56773891
      2.40000000	    -85.63004491	      1.01471035	      0.80994690	     65.81446433	    108.76699705	     28.30609710	     21.92721956	   -178.10373293	   -143.28452136	     92.92432007
      2.41000000	    -86.01030415	      1.00197857	      0.81202857	     67.26704600	    108.43086336	     27.89143412	     22.94027474	   -178.60579054	   -144.43376396	     93.22636410
      2.42000000	    -86.32656035	      0.98951521	      0.81414190	     68.67122385	    107.95190280	     27.38970032	     23.75807394	   -178.99883269	   -145.90971124	     93.46807050
      2.43000000	    -86.51338695	      0.97733981	      0.81637400	     69.97602452	    107.27209587	     26.83998583	     24.40787225	   -179.30730153	   -147.33919291	     93.56679573
      2.44000000	    -86.65142560	      0.96525152	      0.81867854	     71.28124874	    106.47998640	     26.18146894	     24.88717711	   -179.59315243	   -148.65149461	     93.60919672
      2.45000000	    -86.82060336	      0.95346699	      0.82100847	     72.63678839	    105.62118652	     25.43916988	     25.26004517	   -179.93154717	   -149.84728123	     93.69099593
      2.46000000	    -86.92808461	      0.94172000	      0.82334014	     73.95491660	    104.64941661	     24.65177954	     25.53777027	   -180.04811079	   -150.83037933	     93.67923224
      2.47000000	    -86.95296253	      0.93023873	      0.82568302	     75.21822962	    103.51629811	     23.78724867	     25.78300076	   -180.20257796	   -151.71800341	     93.58098835
      2.48000000	    -87.11726822	      0.91868471	      0.82800793	     76.61202701	    102.47207244	     22.89461387	     26.03836534	   -180.23666944	   -152.83216736	     93.62515725
      2.49000000	    -87.25445023	      0.90734540	      0.83028881	     77.98788848	    101.29460792	     21.95459082	     26.38787792	   -180.31112990	   -153.85747479	     93.66900694
      2.50000000	    -87.44824486	      0.89600986	      0.83232651	     79.39255486	    100.11061891	     21.07926232	     26.73349508	   -180.27699994	   -154.78515054	     93.76410158
      2.51000000	    -87.73328481	      0.88481489	      0.83427837	     80.85626663	     98.93350222	     20.20936138	     27.18320636	   -180.20828201	   -155.82672575	     93.97889857
      2.52000000	    -88.06857087	      0.87367175	      0.83603745	     82.38207546	     97.76466000	     19.28758884	     27.63131212	   -180.12687303	   -156.94953804	     94.26624258
      2.53000000	    -88.44491492	      0.86277959	      0.83759165	     83.91352245	     96.58323273	     18.41095533	     28.02726986	   -179.94380227	   -158.07068074	     94.63353265
      2.54000000	    -88.91171090	      0.85206869	      0.83890487	     85.46885408	     95.46520437	     17.61027354	     28.37084717	   -179.94630285	   -159.19428093	     95.10975486
      2.55000000	    -89.49547524	      0.84135856	      0.83992883	     87.09586162	     94.44230387	     16.86996874	     28.64852765	   -179.85310455	   -160.23820848	     95.72643304
      2.56000000	    -90.06881733	      0.83090748	      0.84072224	     88.64854190	     93.40351379	     16.21948049	     28.83732087	   -179.81977915	   -161.10724587	     96.36065692
      2.57000000	    -90.69706941	      0.82048484	      0.84119221	     90.23276586	     92.43974889	     15.58994938	     28.93391781	   -179.84347598	   -162.08215253	     97.04390324
      2.58000000	    -91.34955066	      0.81011991	      0.84141604	     91.76965235	     91.47812956	     15.08792312	     28.98504379	   -179.87382377	   -162.75110597	     97.76514255
      2.59000000	    -91.92971097	      0.79995266	      0.84129564	     93.21898657	     90.46121516	     14.62584558	     28.96739944	   -179.97117742	   -163.38950476	     98.42444016
      2.60000000	    -92.54263935	      0.78976390	      0.84088912	     94.61170387	     89.50620952	     14.31444794	     28.83143557	   -180.16420061	   -163.96393818	     99.11660888
      2.61000000	    -93.13829794	      0.77960502	      0.84016291	     95.94508883	     88.56380592	     14.07106925	     28.66210604	   -180.43116059	   -164.51605202	     99.77954846
      2.62000000	    -93.72570558	      0.76945297	      0.83911158	     97.21914779	     87.66103114	     13.94347725	     28.31662768	   -180.75929610	   -165.04821522	    100.43118048
      2.63000000	    -94.36456076	      0.75913061	      0.83776166	     98.49719329	     86.90276503	     13.88434752	     27.80770909	   -181.13897833	   -165.61892943	    101.12338298
      2.64000000	    -94.95189397	      0.74882030	      0.83612745	     99.68987088	     86.17061083	     13.91071863	     27.07940230	   -181.56532795	   -166.01589480	    101.75138302
      2.65000000	    -95.50595077	      0.73843067	      0.83421313	    100.84256944	     85.52080271	     13.97036034	     26.18558201	   -182.00197761	   -166.34255074	    102.31461351
      2.66000000	    -95.99461573	      0.72795644	      0.83205690	    101.88346963	     84.92774559	     14.12885078	     25.09316500	   -182.56806073	   -166.65487104	    102.79590779
      2.67000000	    -96.34569718	      0.71749305	      0.82965257	    102.79179008	     84.30509293	     14.33503077	     23.80826547	   -183.11248430	   -166.92295462	    103.11390158
      2.68000000	    -96.64967741	      0.70686188	      0.82708170	    103.62761133	     83.77941168	     14.60600011	     22.30151555	   -183.70527948	   -167.05270687	    103.36008532
      2.69000000	    -96.88879000	      0.69614787	      0.82430100	    104.39862836	     83.29469187	     14.89603848	     20.64423625	   -184.32427802	   -167.16366760	    103.51277917
      2.70000000	    -96.99202020	      0.68544433	      0.82136499	    105.04667889	     82.77389613	     15.20812812	     18.86869702	   -184.96972920	   -167.38044473	    103.51819932
      2.71000000	    -97.09329188	      0.67454246	      0.81834015	    105.70113360	     82.34519068	     15.52821200	     17.07163129	   -185.58112639	   -167.55310632	    103.50356319
      2.72000000	    -97.13715736	      0.66350624	      0.81527218	    106.33175811	     81.96205814	     15.82651987	     15.20154280	   -186.15107458	   -167.69523126	    103.40352646
      2.73000000	    -97.19963343	      0.65222333	      0.81231648	    107.00090709	     81.68204136	     16.11171730	     13.36905292	   -186.65529977	   -167.82140743	    103.30829642
      2.74000000	    -97.21857764	      0.64067598	      0.80945514	    107.67080564	     81.44273799	     16.35676010	     11.60788059	   -186.95504597	   -167.98453753	    103.13481151
      2.75000000	    -97.31201627	      0.62896425	      0.80681054	    108.40616374	     81.34582040	     16.59146211	     10.00978988	   -187.06915036	   -168.07904370	    103.03798994
      2.76000000	    -97.48193674	      0.61718327	      0.80437421	    109.19808921	     81.37768696	     16.86153884	      8.63885941	   -187.02973584	   -168.12279893	    103.03125347
      2.77000000	    -97.62886988	      0.60509377	      0.80223117	    110.03645131	     81.47832013	     17.01023135	      7.42944764	   -186.71288519	   -168.07211598	    102.95722221
      2.78000000	    -97.76358461	      0.59290403	      0.80036170	    110.78976891	     81.61999389	     17.29185672	      6.56642349	   -186.28641280	   -167.99308212	    102.87201969
      2.79000000	    -97.80760504	      0.58056165	      0.79872459	    111.41793114	     81.74791623	     17.63060314	      5.97361487	   -185.71057433	   -167.89799854	    102.68145054
      2.80000000	    -97.88159963	      0.56803289	      0.79734861	    112.04973463	     81.96359229	     18.01255225	      5.68595930	   -184.97136592	   -167.64657216	    102.51686100
      2.81000000	    -97.85047666	      0.55530590	      0.79615790	    112.55897958	     82.14023033	     18.42594409	      5.71680482	   -184.00709279	   -167.41052310	    102.21315786
      2.82000000	    -97.73227856	      0.54245471	      0.79510387	    112.97780637	     82.33371123	     18.84597407	      5.92802753	   -182.91769334	   -167.17960250	    101.81149451
      2.83000000	    -97.47017619	      0.52944491	      0.79404331	    113.27955563	     82.50670002	     19.22810770	      6.23462106	   -181.64651693	   -167.00266437	    101.24984629
